<svg width="416" height="416" viewBox="0 0 416 416" fill="none" xmlns="http://www.w3.org/2000/svg">
<path d="M416 208C416 247.309 405.094 284.068 386.132 315.426C366.908 347.268 339.367 373.526 306.53 391.219C277.211 407.029 243.655 416 208.007 416C172.358 416 138.789 407.029 109.456 391.219C76.6326 373.526 49.0919 347.268 29.8553 315.426C10.9064 284.068 0 247.309 0 208C0 93.1332 93.123 0 208.007 0C322.89 0 416 93.1332 416 208Z" fill="#C6E4F6"/>
<path d="M185.108 158.766C185.108 131.502 163.006 109.401 135.742 109.401C108.477 109.401 86.3752 131.502 86.3752 158.766V301.303C86.3752 328.567 108.477 350.668 135.742 350.668C163.006 350.668 185.108 328.567 185.108 301.303V158.766Z" fill="#EC4A0A"/>
<path d="M329.612 158.766C329.612 131.502 307.51 109.401 280.245 109.401C252.981 109.401 230.879 131.502 230.879 158.766V301.303C230.879 328.567 252.981 350.668 280.245 350.668C307.51 350.668 329.612 328.567 329.612 301.303V158.766Z" fill="#FB6514"/>
<path d="M135.742 189.653C153.162 189.653 167.284 175.532 167.284 158.112C167.284 140.692 153.162 126.571 135.742 126.571C118.321 126.571 104.199 140.692 104.199 158.112C104.199 175.532 118.321 189.653 135.742 189.653Z" fill="white"/>
<path d="M280.245 189.653C297.666 189.653 311.787 175.532 311.787 158.112C311.787 140.692 297.666 126.571 280.245 126.571C262.825 126.571 248.703 140.692 248.703 158.112C248.703 175.532 262.825 189.653 280.245 189.653Z" fill="white"/>
<path d="M208.007 255.325V416C243.655 416 277.211 407.029 306.53 391.219C339.367 373.527 366.908 347.268 386.132 315.426C336.7 277.726 274.975 255.325 208.007 255.325Z" fill="#FB6514"/>
<path d="M29.8554 315.426C49.092 347.268 76.6326 373.527 109.457 391.219C138.789 407.029 172.358 416 207.994 416V255.325C141.025 255.325 79.2742 277.726 29.8423 315.426H29.8554Z" fill="#EC4A0A"/>
<path d="M135.742 176.903C146.12 176.903 154.534 168.49 154.534 158.112C154.534 147.734 146.12 139.32 135.742 139.32C125.363 139.32 116.95 147.734 116.95 158.112C116.95 168.49 125.363 176.903 135.742 176.903Z" fill="#263238"/>
<path d="M278.271 176.903C288.649 176.903 297.063 168.49 297.063 158.112C297.063 147.734 288.649 139.32 278.271 139.32C267.892 139.32 259.479 147.734 259.479 158.112C259.479 168.49 267.892 176.903 278.271 176.903Z" fill="#263238"/>
</svg>
