<svg width="416" height="416" viewBox="0 0 416 416" fill="none" xmlns="http://www.w3.org/2000/svg">
<path d="M416 208C416 287.232 371.707 356.108 306.53 391.219C277.211 407.029 243.655 416 208.007 416C172.358 416 138.789 407.029 109.456 391.219C44.2926 356.095 0 287.219 0 208C0 93.1332 93.123 0 208.007 0C322.89 0 416 93.1332 416 208Z" fill="#FEB173"/>
<path d="M306.53 391.219C277.211 407.029 243.655 416 208.007 416V319.258H234.632V368.283C253.241 372.389 271.431 377.319 288.889 383.766C292.695 384.982 296.88 386.577 301.313 388.63C301.365 388.656 301.43 388.683 301.496 388.709C303.144 389.493 304.817 390.317 306.53 391.219Z" fill="#08BED0"/>
<path d="M208.007 319.258V416C172.358 416 138.789 407.029 109.457 391.219C111.17 390.317 112.857 389.493 114.504 388.722C114.57 388.683 114.635 388.656 114.687 388.63C119.121 386.577 123.305 384.982 127.111 383.766C144.569 377.319 162.759 372.389 181.368 368.283V319.258H208.007Z" fill="#0691AE"/>
<path d="M207.993 60.0357C143.405 62.1803 91.7238 113.651 91.7238 176.851C91.7238 240.051 141.443 350.668 207.993 350.668V60.0357Z" fill="#0691AE"/>
<path d="M207.994 60.0357C272.582 62.1803 324.263 113.651 324.263 176.851C324.263 240.051 274.544 350.668 207.994 350.668V60.0357Z" fill="#08BED0"/>
<path d="M217.919 243.765C298.318 268.271 310.179 194.609 310.179 194.609C310.179 194.609 242.426 163.356 217.919 243.765Z" fill="#024C74"/>
<path d="M105.821 194.609C105.821 194.609 117.669 268.271 198.081 243.765C173.574 163.369 105.821 194.609 105.821 194.609Z" fill="#024C74"/>
<path d="M203.966 274.81C203.966 277.464 201.808 279.622 199.153 279.622C196.499 279.622 194.341 277.464 194.341 274.81C194.341 272.155 196.499 269.997 199.153 269.997C201.808 269.997 203.966 272.155 203.966 274.81Z" fill="#024C74"/>
<path d="M216.847 279.622C219.505 279.622 221.659 277.467 221.659 274.81C221.659 272.152 219.505 269.997 216.847 269.997C214.189 269.997 212.034 272.152 212.034 274.81C212.034 277.467 214.189 279.622 216.847 279.622Z" fill="#024C74"/>
</svg>
