<svg width="416" height="416" viewBox="0 0 416 416" fill="none" xmlns="http://www.w3.org/2000/svg">
<path d="M416 208C416 227.341 413.358 246.067 408.428 263.825C403.773 280.563 397.078 296.452 388.63 311.202C386.42 315.06 384.093 318.839 381.647 322.54C373.801 334.414 364.765 345.437 354.709 355.441L354.683 355.467C350.511 359.626 346.157 363.588 341.658 367.354C341.004 367.93 340.337 368.479 339.671 369.028C334.139 373.553 328.372 377.803 322.383 381.752C290.946 402.505 253.534 414.928 213.27 415.922C212.956 415.948 212.629 415.948 212.302 415.948C211.988 415.961 211.662 415.974 211.335 415.961C210.236 415.987 209.125 416 208.013 416C206.902 416 205.764 416 204.652 415.974H204.378C204.064 415.974 203.737 415.974 203.423 415.948C202.534 415.948 201.645 415.908 200.742 415.869C159.577 414.457 121.458 401.092 89.7332 379.11C89.6678 379.071 89.6024 379.019 89.537 378.979C87.9809 377.894 86.4247 376.796 84.8948 375.658C78.3825 370.872 72.1579 365.707 66.2472 360.201C66.1557 360.11 66.0641 360.031 65.9726 359.94C65.698 359.691 65.4234 359.43 65.1618 359.168C53.5496 348.21 43.2058 335.918 34.3659 322.553C33.7644 321.638 33.1759 320.735 32.5875 319.807C23.9175 306.233 16.7906 291.587 11.4291 276.117C4.01459 254.776 0 231.865 0 208C0 93.1332 93.1332 0 208 0C322.867 0 416 93.1332 416 208Z" fill="#D9D6FE"/>
<path d="M208 273.868C250.459 273.868 284.879 239.448 284.879 196.989C284.879 154.53 250.459 120.111 208 120.111C165.541 120.111 131.121 154.53 131.121 196.989C131.121 239.448 165.541 273.868 208 273.868Z" fill="white"/>
<path d="M129.644 196.989H286.579C319.075 206.221 346.013 221.064 366.661 239.685C371.957 244.471 368.557 253.272 361.417 253.272H54.5827C47.4427 253.272 44.0428 244.471 49.3389 239.685C69.9741 221.064 97.1347 206.208 129.644 196.989Z" fill="#5494CD"/>
<path d="M240.496 290.135H175.504C148.344 290.135 121.588 286.356 99.7108 278.811C92.7016 276.392 86.5294 273.737 81.364 270.886H334.636C329.471 273.737 323.298 276.392 316.289 278.811C294.412 286.356 267.656 290.135 240.496 290.135Z" fill="#29609B"/>
<path d="M354.879 270.886L59.6957 270.886C56.0865 270.886 53.1573 267.957 53.1573 264.348V253.272L361.417 253.272V264.348C361.417 267.957 358.488 270.886 354.879 270.886Z" fill="#3E3A39"/>
<path d="M131.658 188.176H284.565C285.676 188.176 286.579 189.078 286.579 190.189V196.976H129.644V190.189C129.644 189.078 130.546 188.176 131.658 188.176Z" fill="#3E3A39"/>
<path d="M208 270.886V290.135H175.504C148.344 290.135 121.588 286.356 99.7108 278.811C92.7016 276.392 86.5294 273.737 81.364 270.886H208Z" fill="#215889"/>
<path d="M208 253.272V270.886H59.6565C56.0734 270.886 53.1573 267.983 53.1573 264.387V253.272H208Z" fill="#302D2D"/>
<path d="M49.3389 239.685C69.9741 221.064 97.1347 206.208 129.644 196.989H208V253.272H54.5827C47.4427 253.272 44.0428 244.471 49.3389 239.685Z" fill="#4486B7"/>
<path d="M131.121 196.989C131.121 154.529 165.54 120.111 208 120.111V196.989H131.121Z" fill="#EAEAEA"/>
<path d="M131.658 188.176H208V196.989H129.644V190.202C129.644 189.091 130.546 188.189 131.658 188.189V188.176Z" fill="#302D2D"/>
</svg>
